<?xml version="1.0" encoding="UTF-8" standalone="no"?>
<svg
   width="16"
   height="16"
   version="1.1"
   id="svg8486"
   sodipodi:docname="battery-missing.svg"
   inkscape:version="1.1 (c4e8f9ed74, 2021-05-24)"
   inkscape:export-filename="/home/neo/.config/awesome/icons/sidebar/chocolate/battery-missing.png"
   inkscape:export-xdpi="3000.0002"
   inkscape:export-ydpi="3000.0002"
   xmlns:inkscape="http://www.inkscape.org/namespaces/inkscape"
   xmlns:sodipodi="http://sodipodi.sourceforge.net/DTD/sodipodi-0.dtd"
   xmlns="http://www.w3.org/2000/svg"
   xmlns:svg="http://www.w3.org/2000/svg">
  <sodipodi:namedview
     id="namedview8488"
     pagecolor="#ffffff"
     bordercolor="#666666"
     borderopacity="1.0"
     inkscape:pageshadow="2"
     inkscape:pageopacity="0.0"
     inkscape:pagecheckerboard="0"
     showgrid="false"
     inkscape:zoom="24.439378"
     inkscape:cx="8.6949839"
     inkscape:cy="7.7743386"
     inkscape:window-width="1306"
     inkscape:window-height="701"
     inkscape:window-x="30"
     inkscape:window-y="37"
     inkscape:window-maximized="0"
     inkscape:current-layer="svg8486" />
  <defs
     id="defs8480">
    <style
       id="current-color-scheme"
       type="text/css">
   .ColorScheme-Text { color:#dfdfdf; } .ColorScheme-Highlight { color:#4285f4; }
  </style>
  </defs>
  <path
     style="opacity:1;fill:#d9cece;fill-opacity:1"
     class="ColorScheme-Text"
     d="M 6,1 V 2 H 3 V 14 C 3,14.55 3.446,15 4,15 H 12 C 12.554,15 13,14.55 13,14 V 2 H 10 V 1 Z M 8,4 C 9.645,4 11,5.355 11,7 11,8.2567 10.107,9.1406 9,9.584 V 13 H 6 V 8 H 5 V 7 C 5,5.355 6.355,4 8,4 Z"
     id="path8482" />
  <path
     style="fill:#e5dace;fill-opacity:1"
     class="ColorScheme-Text"
     d="M 8,5 A 2,2 0 0 0 6,7 H 7 A 1,1 0 0 1 8,6 1,1 0 0 1 9,7 1,1 0 0 1 8,8 H 7 V 10 H 8 V 9 A 2,2 0 0 0 10,7 2,2 0 0 0 8,5 Z M 7,11 V 12 H 8 V 11 Z"
     id="path8484" />
</svg>
