<?xml version="1.0" encoding="UTF-8" standalone="no"?>
<svg
   width="24"
   height="24"
   version="1.1"
   id="svg2677"
   sodipodi:docname="notification-symbolic.svg"
   inkscape:version="1.1 (c4e8f9ed74, 2021-05-24)"
   xmlns:inkscape="http://www.inkscape.org/namespaces/inkscape"
   xmlns:sodipodi="http://sodipodi.sourceforge.net/DTD/sodipodi-0.dtd"
   xmlns="http://www.w3.org/2000/svg"
   xmlns:svg="http://www.w3.org/2000/svg">
  <sodipodi:namedview
     id="namedview2679"
     pagecolor="#ffffff"
     bordercolor="#666666"
     borderopacity="1.0"
     inkscape:pageshadow="2"
     inkscape:pageopacity="0.0"
     inkscape:pagecheckerboard="0"
     showgrid="false"
     inkscape:zoom="18.020833"
     inkscape:cx="22.168786"
     inkscape:cy="12.041618"
     inkscape:window-width="1860"
     inkscape:window-height="1013"
     inkscape:window-x="30"
     inkscape:window-y="37"
     inkscape:window-maximized="0"
     inkscape:current-layer="svg2677" />
  <defs
     id="defs2673">
    <style
       id="current-color-scheme"
       type="text/css">
   .ColorScheme-Text { color:#ffffff; } .ColorScheme-Highlight { color:#4285f4; }
  </style>
  </defs>
  <path
     style="fill:#e5dace;fill-opacity:1"
     class="ColorScheme-Text"
     d="m 12.00028,4.00001 c 0.55228,0 1,0.44772 1,1 -2.9e-4,0.0333 -0.002,0.0665 -0.006,0.0996 C 15.2846,5.55844 17.00031,7.57084 17.00014,10 L 17,11.99999 v 2.5 l 2,2 v 0.5 H 17 7 5 v -0.5 l 2,-2 L 7.00014,10 C 7.00022,7.57084 8.71582,5.55843 11.006,5.09961 11.002,5.06651 11,5.03331 11,5.00001 c 0,-0.55228 0.44772,-1 1,-1 z M 13.72866,18 c -0.35663,0.61771 -1.01525,0.99874 -1.72852,1 -0.71397,-5.6e-4 -1.37349,-0.38169 -1.73047,-1 z"
     id="path2675" />
</svg>
