<?xml version="1.0" encoding="UTF-8" standalone="no"?>
<svg
   width="16"
   height="16"
   version="1.1"
   id="svg1426"
   sodipodi:docname="xfpm-brightness-lcd.svg"
   inkscape:version="1.1 (c4e8f9ed74, 2021-05-24)"
   inkscape:export-filename="/home/neo/.config/awesome/icons/sidebar/chocolate/xfpm-brightness-lcd.png"
   inkscape:export-xdpi="3000"
   inkscape:export-ydpi="3000"
   xmlns:inkscape="http://www.inkscape.org/namespaces/inkscape"
   xmlns:sodipodi="http://sodipodi.sourceforge.net/DTD/sodipodi-0.dtd"
   xmlns="http://www.w3.org/2000/svg"
   xmlns:svg="http://www.w3.org/2000/svg">
  <sodipodi:namedview
     id="namedview1428"
     pagecolor="#ffffff"
     bordercolor="#666666"
     borderopacity="1.0"
     inkscape:pageshadow="2"
     inkscape:pageopacity="0.0"
     inkscape:pagecheckerboard="0"
     showgrid="false"
     inkscape:zoom="34.5625"
     inkscape:cx="7.4502712"
     inkscape:cy="7.7830018"
     inkscape:window-width="1306"
     inkscape:window-height="701"
     inkscape:window-x="30"
     inkscape:window-y="37"
     inkscape:window-maximized="0"
     inkscape:current-layer="svg1426" />
  <defs
     id="defs1422">
    <style
       id="current-color-scheme"
       type="text/css">
   .ColorScheme-Text { color:#dfdfdf; } .ColorScheme-Highlight { color:#4285f4; }
  </style>
  </defs>
  <path
     style="fill:#e5dace;fill-opacity:1"
     class="ColorScheme-Text"
     d="M 8,0.721 5.8107,3.0003 H 3.0002 V 5.8108 L 0.7209,8 3.0002,10.221 V 13 H 5.8107 L 8,15.279 10.221,13 H 13 V 10.221 L 15.279,8 13,6.0003 V 3.0003 H 10.221 Z M 8,4.0003 C 10.21,4.0003 12,5.7903 12,8 12,10.21 10.21,12 8,12 5.7902,12 4.0002,10.21 4.0002,8 4.0002,5.7903 5.7902,4.0003 8,4.0003 Z M 8,5.0003 C 6.3433,5.0003 5.0002,6.3434 5.0002,8 5.0002,9.657 6.3433,11 8,11 Z"
     id="path1424"
     inkscape:export-filename="/home/neo/.config/awesome/icons/sidebar/vanilla/xfpm-brightness-lcd.png"
     inkscape:export-xdpi="3000"
     inkscape:export-ydpi="3000" />
</svg>
