<?xml version="1.0" encoding="UTF-8" standalone="no"?>
<svg
   width="16"
   height="14"
   version="1.1"
   id="svg5537"
   sodipodi:docname="network-wireless-offline.svg"
   inkscape:version="1.1 (c4e8f9ed74, 2021-05-24)"
   inkscape:export-filename="/home/neo/.config/awesome/icons/sidebar/vanilla/network-wireless-offline.png"
   inkscape:export-xdpi="3000.0002"
   inkscape:export-ydpi="3000.0002"
   xmlns:inkscape="http://www.inkscape.org/namespaces/inkscape"
   xmlns:sodipodi="http://sodipodi.sourceforge.net/DTD/sodipodi-0.dtd"
   xmlns="http://www.w3.org/2000/svg"
   xmlns:svg="http://www.w3.org/2000/svg">
  <sodipodi:namedview
     id="namedview5539"
     pagecolor="#ffffff"
     bordercolor="#666666"
     borderopacity="1.0"
     inkscape:pageshadow="2"
     inkscape:pageopacity="0.0"
     inkscape:pagecheckerboard="0"
     showgrid="false"
     inkscape:zoom="24.439378"
     inkscape:cx="10.904533"
     inkscape:cy="6.2194709"
     inkscape:window-width="1860"
     inkscape:window-height="1013"
     inkscape:window-x="30"
     inkscape:window-y="37"
     inkscape:window-maximized="0"
     inkscape:current-layer="svg5537" />
  <defs
     id="defs5531">
    <style
       id="current-color-scheme"
       type="text/css">
   .ColorScheme-Text { color:#dfdfdf; } .ColorScheme-Highlight { color:#4285f4; }
  </style>
  </defs>
  <path
     style="fill:#62301b;fill-opacity:1"
     class="ColorScheme-Text"
     d="m 11,9 v 1 c 0,0.28 0.1,0.54 0.28,0.72 l 0.78,0.78 -0.78,0.78 C 11.1,12.47 11,12.73 11,13 v 1 h 1 c 0.28,0 0.54,-0.1 0.72,-0.28 l 0.78,-0.78 0.78,0.78 C 14.46,13.9 14.73,14 15,14 h 1 v -1 c 0,-0.27 -0.1,-0.53 -0.28,-0.72 L 14.94,11.5 15.72,10.72 C 15.9,10.54 16,10.28 16,10 V 9 H 15 C 14.73,9 14.46,9.1 14.28,9.28 L 13.5,10.07 12.72,9.28 C 12.54,9.1 12.28,9 12,9 Z"
     id="path5533" />
  <path
     style="opacity:1;fill:#321509;fill-opacity:1"
     class="ColorScheme-Text"
     d="M 8,0 C 4.9494,0 2.0806,1.0732 0,3 l 8,9 2,-2.25 V 8 h 1.555 L 16,3 C 13.919,1.0731 11.051,0 8,0 Z"
     id="path5535" />
</svg>
