<?xml version="1.0" encoding="UTF-8" standalone="no"?>
<!-- Created with Inkscape (http://www.inkscape.org/) -->

<svg
   version="1.1"
   id="svg14335"
   width="133.33333"
   height="133.33333"
   viewBox="0 0 133.33333 133.33333"
   sodipodi:docname="weather-thunder.svg"
   inkscape:version="1.1 (c4e8f9ed74, 2021-05-24)"
   xmlns:inkscape="http://www.inkscape.org/namespaces/inkscape"
   xmlns:sodipodi="http://sodipodi.sourceforge.net/DTD/sodipodi-0.dtd"
   xmlns="http://www.w3.org/2000/svg"
   xmlns:svg="http://www.w3.org/2000/svg">
  <defs
     id="defs14339" />
  <sodipodi:namedview
     id="namedview14337"
     pagecolor="#ffffff"
     bordercolor="#666666"
     borderopacity="1.0"
     inkscape:pageshadow="2"
     inkscape:pageopacity="0.0"
     inkscape:pagecheckerboard="0"
     showgrid="false"
     inkscape:zoom="4.5873554"
     inkscape:cx="48.284901"
     inkscape:cy="65.506152"
     inkscape:window-width="1860"
     inkscape:window-height="1000"
     inkscape:window-x="30"
     inkscape:window-y="50"
     inkscape:window-maximized="0"
     inkscape:current-layer="g14341" />
  <g
     inkscape:groupmode="layer"
     inkscape:label="Image"
     id="g14341">
    <path
       id="rect1942"
       style="fill:#8e715c;fill-rule:evenodd;stroke-width:1.14266;fill-opacity:1"
       d="m 81.895689,9.3326758 c -1.777328,0.06144 -5.149796,2.3830522 -14.642562,2.3545042 -15.528185,-0.0467 -20.665288,0.497151 -33.130445,2.780771 -7.54819,1.38283 -13.794493,4.369781 -13.794493,4.369781 -1.022825,0.434349 -3.425541,1.707863 -4.530468,2.207208 -3.07919,1.391564 -16.31182185,10.316968 -14.7786999,11.614067 0.689741,0.583557 5.288235,2.382582 10.2192169,3.997078 6.393659,2.093403 10.370044,4.573643 13.859216,8.648061 4.086143,4.77152 5.872086,5.718832 10.839647,5.746776 12.729429,0.07162 24.890192,9.333957 22.862127,17.414405 -2.222091,8.853521 -19.130684,46.925003 -21.708308,48.877733 -6.08496,4.60976 -13.155207,1.54734 -15.269686,-6.6127 -1.515398,-5.84811 -5.500662,-6.5293 -4.793816,-1.12257 0.877328,6.71075 6.667099,14.05372 14.720674,14.39037 1.965521,0.0822 5.47126,-1.20258 7.791066,-2.85442 3.166982,-2.2551 6.578752,-8.80288 13.696298,-26.281184 5.213584,-12.802798 10.621336,-24.186552 12.015783,-25.299204 1.696517,-1.353676 5.661405,-1.836768 11.98454,-1.457337 7.884687,0.473135 10.455384,1.377055 15.526338,5.452184 4.972678,3.996153 7.427103,4.883086 13.499893,4.883086 4.81689,0 10.22367,1.350903 15.4036,3.849782 4.38971,2.117669 8.62989,3.448301 9.42472,2.957078 4.05744,-2.50764 -1.53233,-21.683824 -10.33082,-35.43808 C 113.73175,38.823903 106.34352,30.812119 95.654474,22.587086 90.801496,18.852804 86.061248,17.602383 84.350622,12.660227 83.455069,10.072893 82.962085,9.2958098 81.895689,9.3326758 Z" />
    <path
       style="fill:#ffff00;stroke-width:1.33333"
       d="m 69.171344,53.266476 c 0,-0.387578 1.839286,-4.348293 4.087302,-8.801586 2.248015,-4.453295 3.726947,-8.457252 3.286515,-8.897684 -0.440432,-0.440432 -3.929257,-2.969996 -7.752945,-5.621252 -3.823688,-2.651256 -7.134334,-5.766425 -7.356993,-6.922597 -0.227644,-1.182064 4.012325,-6.562508 9.687288,-12.292991 L 81.214632,0.53950833 87.526321,4.8047423 c 3.471429,2.345878 6.558011,4.464324 6.859071,4.707656 0.30106,0.24333 -0.541934,1.6460977 -1.873318,3.1172607 -3.849145,7.252545 0,0 -3.849145,7.252545 -1.920372,2.517737 -3.491585,4.832789 -3.491585,5.14456 0,0.311771 3.3,2.757933 7.333333,5.435916 4.033333,2.677982 7.333333,5.413837 7.333333,6.079678 0,1.255164 -27.343851,17.428808 -29.465886,17.428808 -0.660429,0 -1.20078,-0.317111 -1.20078,-0.70469 z"
       id="path14479"
       sodipodi:nodetypes="sssssscssccsssss" />
  </g>
</svg>
