<?xml version="1.0" encoding="UTF-8" standalone="no"?>
<!-- Created with Inkscape (http://www.inkscape.org/) -->

<svg
   version="1.1"
   id="svg9027"
   width="133.33333"
   height="133.33333"
   viewBox="0 0 133.33333 133.33333"
   sodipodi:docname="weather-fog.png.svg"
   inkscape:version="1.1 (c4e8f9ed74, 2021-05-24)"
   xmlns:inkscape="http://www.inkscape.org/namespaces/inkscape"
   xmlns:sodipodi="http://sodipodi.sourceforge.net/DTD/sodipodi-0.dtd"
   xmlns="http://www.w3.org/2000/svg"
   xmlns:svg="http://www.w3.org/2000/svg">
  <defs
     id="defs9031" />
  <sodipodi:namedview
     id="namedview9029"
     pagecolor="#ffffff"
     bordercolor="#666666"
     borderopacity="1.0"
     inkscape:pageshadow="2"
     inkscape:pageopacity="0.0"
     inkscape:pagecheckerboard="0"
     showgrid="false"
     inkscape:zoom="4.5873554"
     inkscape:cx="49.374853"
     inkscape:cy="71.173906"
     inkscape:window-width="1860"
     inkscape:window-height="1000"
     inkscape:window-x="30"
     inkscape:window-y="50"
     inkscape:window-maximized="0"
     inkscape:current-layer="g9033" />
  <g
     inkscape:groupmode="layer"
     inkscape:label="Image"
     id="g9033">
    <path
       style="fill:#a89787;stroke-width:1.33333;fill-opacity:1"
       d="M 59.999998,88.495434 C 52.557764,87.063782 44.18181,83.744205 42.039939,81.377465 c -3.211479,-3.548644 -2.116804,-7.439351 2.007449,-7.134899 1.80727,0.133412 14.685944,0.953448 28.619277,1.8223 13.933333,0.868852 25.557455,1.78382 25.831385,2.033261 1.460829,1.330242 -1.711984,4.793535 -6.742704,7.360016 -4.265672,2.176184 -8.577535,3.008803 -17.064961,3.295239 -6.24638,0.210805 -12.857053,0.09473 -14.690387,-0.257948 z M 8.6782418,68.122876 C 0.36945892,67.137142 -1.713412,66.363124 5.9170768,58.333332 c 4.6016532,-6.630869 10.8718252,-4.821089 18.3482782,-4.996 13.824087,0.004 44.616437,2.591316 64.401309,5.411355 6.623583,0.944093 16.603816,1.172428 26.330356,0.602405 14.16719,-0.830267 15.74892,-0.695889 16.55568,1.406505 0.59559,1.552091 -0.11706,3.141559 -2.14474,4.783465 -2.68416,2.173452 -5.65927,2.458936 -25.6258,2.458936 -16.092345,0 -25.340094,-0.625705 -32.154324,-2.175568 -9.87773,-2.246642 -28.064316,-1.901761 -38.294504,0.726198 -7.031733,1.80633 -17.210659,2.455437 -24.6550902,1.572248 z M 104.66666,48.717952 C 103.93333,48.495283 98.533331,47.232342 92.666664,45.91142 88.713507,45.021338 85.280547,43.988592 82.777455,42.997359 79.382878,41.653096 77.698472,40.385184 78.74603,39.653 79.069046,39.42723 89.533331,39.562944 102,39.954587 c 18.94278,0.595092 23.92638,-0.688533 23.92638,0.982889 0,1.747821 -2.22428,4.767689 -5.8333,6.387031 -4.77338,2.141786 -11.61299,2.551356 -15.42642,1.393445 z"
       id="path9055"
       sodipodi:nodetypes="sssssssssccssssssssssssssss" />
  </g>
</svg>
