<?xml version="1.0" encoding="UTF-8" standalone="no"?>
<!-- Created with Inkscape (http://www.inkscape.org/) -->

<svg
   version="1.1"
   id="svg69"
   width="133.33333"
   height="133.33333"
   viewBox="0 0 133.33333 133.33333"
   sodipodi:docname="weather-rainy.png.svg"
   inkscape:version="1.1 (c4e8f9ed74, 2021-05-24)"
   xmlns:inkscape="http://www.inkscape.org/namespaces/inkscape"
   xmlns:sodipodi="http://sodipodi.sourceforge.net/DTD/sodipodi-0.dtd"
   xmlns="http://www.w3.org/2000/svg"
   xmlns:svg="http://www.w3.org/2000/svg">
  <defs
     id="defs73" />
  <sodipodi:namedview
     id="namedview71"
     pagecolor="#ffffff"
     bordercolor="#666666"
     borderopacity="1.0"
     inkscape:pageshadow="2"
     inkscape:pageopacity="0.0"
     inkscape:pagecheckerboard="0"
     showgrid="false"
     inkscape:zoom="4.1630913"
     inkscape:cx="14.052058"
     inkscape:cy="69.059259"
     inkscape:window-width="1860"
     inkscape:window-height="1000"
     inkscape:window-x="30"
     inkscape:window-y="50"
     inkscape:window-maximized="0"
     inkscape:current-layer="g75" />
  <g
     inkscape:groupmode="layer"
     inkscape:label="Image"
     id="g75">
    <path
       id="rect1942"
       style="fill:#8e715c;fill-rule:evenodd;stroke-width:1.14266;fill-opacity:1"
       d="m 81.895688,9.3326772 c -1.777328,0.06144 -5.149796,2.3830518 -14.642562,2.3545038 -15.528185,-0.0467 -20.665288,0.497151 -33.130444,2.780771 -7.54819,1.38283 -13.794494,4.369781 -13.794494,4.369781 -1.022825,0.434349 -3.425541,1.707863 -4.530468,2.207208 -3.07919,1.391564 -16.31182056,10.316968 -14.7786986,11.614067 0.6897415,0.583557 5.2882347,2.382582 10.2192166,3.997078 6.393658,2.093403 10.370043,4.573643 13.859216,8.648061 4.086143,4.77152 5.872086,5.718832 10.839647,5.746776 12.729428,0.07162 24.890191,9.333957 22.862126,17.414405 -2.222091,8.853521 -19.130683,46.925002 -21.708307,48.877732 -6.08496,4.60976 -13.155207,1.54734 -15.269687,-6.6127 -1.515398,-5.84811 -5.500662,-6.5293 -4.793816,-1.12257 0.877328,6.71075 6.6671,14.05372 14.720675,14.39037 1.965521,0.0822 5.47126,-1.20258 7.791066,-2.85442 3.166981,-2.2551 6.578751,-8.80288 13.696297,-26.281181 5.213584,-12.8028 10.621336,-24.186554 12.015783,-25.299206 1.696517,-1.353676 5.661405,-1.836768 11.98454,-1.457337 7.884687,0.473135 10.455384,1.377055 15.526338,5.452184 4.972678,3.996153 7.427104,4.883086 13.499894,4.883086 4.81689,0 10.22367,1.350903 15.4036,3.849782 4.38971,2.117669 8.62989,3.448301 9.42472,2.957078 4.05744,-2.50764 -1.53233,-21.683824 -10.33082,-35.43808 C 113.73175,38.823904 106.34352,30.81212 95.654473,22.587087 90.801495,18.852805 86.061247,17.602384 84.350621,12.660228 83.455068,10.072894 82.962084,9.2958112 81.895688,9.3326772 Z" />
  </g>
</svg>
