<?xml version="1.0" encoding="UTF-8" standalone="no"?>
<!-- Created with Inkscape (http://www.inkscape.org/) -->

<svg
   version="1.1"
   id="svg2117"
   width="133.33333"
   height="133.33333"
   viewBox="0 0 133.33333 133.33333"
   sodipodi:docname="weather-cloudy.png.svg"
   inkscape:version="1.1 (c4e8f9ed74, 2021-05-24)"
   xmlns:inkscape="http://www.inkscape.org/namespaces/inkscape"
   xmlns:sodipodi="http://sodipodi.sourceforge.net/DTD/sodipodi-0.dtd"
   xmlns="http://www.w3.org/2000/svg"
   xmlns:svg="http://www.w3.org/2000/svg">
  <defs
     id="defs2121" />
  <sodipodi:namedview
     id="namedview2119"
     pagecolor="#ffffff"
     bordercolor="#666666"
     borderopacity="1.0"
     inkscape:pageshadow="2"
     inkscape:pageopacity="0.0"
     inkscape:pagecheckerboard="0"
     showgrid="false"
     inkscape:zoom="4.5873554"
     inkscape:cx="62.236294"
     inkscape:cy="53.516673"
     inkscape:window-width="1860"
     inkscape:window-height="1000"
     inkscape:window-x="30"
     inkscape:window-y="50"
     inkscape:window-maximized="0"
     inkscape:current-layer="g2123" />
  <g
     inkscape:groupmode="layer"
     inkscape:label="Image"
     id="g2123">
    <path
       style="fill:#d9cece;stroke-width:1.33333;fill-opacity:1"
       d="m 51.128525,101.34181 c -3.668169,-1.433351 -3.762234,-3.408557 -0.404872,-8.50162 3.348028,-5.078907 7.474346,-7.283707 14.071503,-7.518777 l 5.33332,-0.190036 -5.568255,-1.249551 C 56.33826,82.036768 50.488079,84.922259 45.198322,93.431721 41.023151,100.14818 40.900295,100.22471 35.548944,99.442764 14.736835,96.401667 8.496906,90.139933 14.232888,78.052218 15.390232,75.61329 18.312409,72.26433 20.726617,70.610087 l 4.389466,-3.007719 -2.464457,-5.42604 c -5.4004,-11.890162 -1.769268,-22.773481 9.488807,-28.440081 7.010641,-3.52871 16.525696,-3.133995 23.532392,0.976199 4.204969,2.466676 4.215417,2.465432 7.333315,-0.872667 5.065631,-5.423387 9.654339,-7.089489 19.52558,-7.089489 7.363802,0 10.101157,0.605711 13.701116,3.03173 7.369184,4.966106 10.562214,10.893373 10.562214,19.606808 0,6.639668 0.39714,7.790063 3.20881,9.294825 1.76485,0.94452 4.29327,3.73102 5.61871,6.192222 2.12133,3.939081 2.21051,5.220396 0.74475,10.700695 -0.91582,3.42418 -2.84424,7.881691 -4.28537,9.905577 -1.44113,2.023888 -2.59141,4.187174 -2.55617,4.807302 0.0352,0.620129 3.33523,3.199146 7.33331,5.73115 3.99809,2.532004 7.26805,4.932001 7.26659,5.333331 -0.005,1.24259 -69.815843,1.231 -72.997155,-0.0121 z m 1.709896,-43.96578 c 0,-6e-6 5.075816,-2.961239 7.256831,-3.270069 4.052642,-0.573852 7.248222,1.41998 10.375238,4.341058 l 3.957351,3.696729 2.150592,-3.747199 c 1.182825,-2.060959 4.115457,-4.645505 6.516962,-5.743435 l 4.36637,-1.996236 -5.33332,0.786176 c -1.919359,0.28293 -4.46547,1.099313 -5.618689,1.613188 -1.146019,0.510667 -1.348329,0.739359 -2.778431,1.379854 l -2.363006,-1.29564 c 0,0 -1.189764,-0.414761 -2.240793,-0.912158 -1.637451,-0.77492 -3.45601,-0.922026 -5.547717,-1.508251 -1.261077,-0.353432 -3.340566,-0.448798 -4.52996,-0.234292 -1.432722,0.25839 -2.60686,0.997975 -4.33354,1.888649 -4.119389,2.124904 -6.585944,3.601938 -8.554034,6.668429 -1.31962,2.056106 -1.849597,4.039715 -2.204586,5.055589 -1.102778,3.155822 -1.226547,4.537397 -1.300514,4.692355 -0.159434,0.33401 0.617766,-0.731234 1.990291,-2.911475 0.445306,-0.707364 1.285965,-1.840813 1.887285,-2.845398 1.087036,-1.816038 4.127454,-4.223388 6.30367,-5.65788 z"
       id="path2127"
       sodipodi:nodetypes="ssscssssscssssssssssscscsscsscsscssccssssssssssc" />
  </g>
</svg>
