<?xml version="1.0" encoding="UTF-8" standalone="no"?>
<!-- Created with Inkscape (http://www.inkscape.org/) -->

<svg
   version="1.1"
   id="svg9980"
   width="133.33333"
   height="133.33333"
   viewBox="0 0 133.33333 133.33333"
   sodipodi:docname="weather-sunny.png.svg"
   inkscape:version="1.1 (c4e8f9ed74, 2021-05-24)"
   xmlns:inkscape="http://www.inkscape.org/namespaces/inkscape"
   xmlns:sodipodi="http://sodipodi.sourceforge.net/DTD/sodipodi-0.dtd"
   xmlns="http://www.w3.org/2000/svg"
   xmlns:svg="http://www.w3.org/2000/svg">
  <defs
     id="defs9984" />
  <sodipodi:namedview
     id="namedview9982"
     pagecolor="#ffffff"
     bordercolor="#666666"
     borderopacity="1.0"
     inkscape:pageshadow="2"
     inkscape:pageopacity="0.0"
     inkscape:pagecheckerboard="0"
     showgrid="false"
     inkscape:zoom="4.5873554"
     inkscape:cx="106.05239"
     inkscape:cy="73.789792"
     inkscape:window-width="1860"
     inkscape:window-height="1000"
     inkscape:window-x="30"
     inkscape:window-y="50"
     inkscape:window-maximized="0"
     inkscape:current-layer="g9986" />
  <g
     inkscape:groupmode="layer"
     inkscape:label="Image"
     id="g9986">
    <path
       style="fill:#d67676;stroke-width:1.33333;fill-opacity:1"
       d="m 36.219498,124.33333 c 12.175517,-15.77708 13.759062,-17.66659 14.805903,-17.66663 1.422304,-5e-5 -0.198766,6.07323 -3.736849,13.99996 -1.636609,3.66667 -3.386489,8.01667 -3.88862,9.66667 -0.392818,1.2908 -0.791131,2.93014 -1.796139,2.96937 -1.151511,0.045 -2.874084,0.0306 -5.72331,0.0306 h -6.606482 z m 37.113833,-5.26667 c 0,-8.65698 0.479475,-13.76861 1.219411,-13 0.670675,0.69667 3.64164,7.11667 6.602143,14.26667 l 5.382733,13 h -6.602143 -6.602144 z m 42.295189,-9.31007 c -9.37097,-9.23528 -16.770004,-17.059555 -16.442285,-17.387274 0.905875,-0.905873 33.045445,16.016344 33.710455,17.749324 0.31938,0.8323 0.39829,4.8694 0.17534,8.97133 l -0.40537,7.45805 z M 0,111.33333 c 0,-5.64517 0.06778145,-9.81054 0.06778145,-9.81054 0.1086756,-0.71078 8.40794185,-3.491366 15.57146755,-7.527031 7.163525,-4.035664 13.2249,-6.736645 13.469721,-6.002183 0.244821,0.734464 -1.33364,3.286372 -3.507691,5.670906 -6.074093,6.662158 -16.533852,18.573458 -20.515199,23.362168 -1.9693226,2.36867 -4.90628401,4.2478 -4.90628401,4.2478 C -0.20055684,121.11094 0,116.83333 0,111.33333 Z M 56.876393,93.548487 C 32.602477,84.883098 28.688945,53.651251 50.170012,40.028362 62.551145,32.176479 76.057947,33.640534 86.606289,43.97783 98.795342,55.923012 99.207614,73.006462 87.59909,85.116837 78.80059,94.295704 67.58891,97.37268 56.876393,93.548487 Z M 0,74.788194 v -5.145137 l 11,0.567169 c 11.725977,0.604602 17.713046,1.521171 16.680566,2.55365 -0.756792,0.756791 -17.20255,5.246869 -23.3472328,6.374342 -2.3164913,0.425047 -4.30274005,0.55153 -4.30720043,-0.06648 C 0.02070844,78.320165 0,77.116714 0,74.788194 Z m 131.92824,-7.07596 c -0.50958,0.0657 -5.94706,-0.470924 -10.60225,-1.413122 -10.67119,-2.15982 -11.61362,-4.317902 -2.3733,-5.434652 3.87602,-0.468442 8.69731,-1.224528 10.71397,-1.680189 1.39166,-0.314443 3.59238,-1.521031 3.64166,-0.821214 0.0649,0.921796 0.025,2.265027 0.025,5.481505 0,4.938126 0.54104,3.616744 -1.40509,3.867672 z M 14.02916,53.749308 C 6.7118636,52.697041 0.38090352,51.466875 0.05120791,51.410025 c 0,0 -0.01148678,-4.140642 -0.03578385,-8.616403 L 0.03627494,34.649714 15.078528,44.011255 c 8.014937,4.988093 14.041113,9.922482 13.587977,10.655672 -0.453136,0.733189 -0.938474,1.25714 -1.078528,1.164333 -0.140055,-0.09281 -6.241523,-1.029685 -13.558817,-2.081952 z m 95.30831,-9.415976 c 0.004,-0.910569 23.94782,-15.21168 23.9778,-13.66123 0.0144,0.743626 0.0181,2.383133 0.0181,5.302494 0,2.106808 0.0422,3.411804 -0.042,4.35229 -0.0868,0.969067 -1.83158,1.375405 -3.62462,1.777112 -2.01666,0.451807 -5.76666,1.359893 -8.33333,2.017966 -5.692,1.459384 -12.00148,1.570559 -11.99586,0.211368 z M 99.999997,31.99509 c 0,-0.842436 3.649893,-8.385965 8.110883,-16.763397 L 116.22176,0 h 8.55579 c 4.70568,0 7.34591,-2.2549505e-5 8.56697,0.07854319 0.54886,0.03531534 -7.51207,9.01498521 -16.67842,17.68485381 -9.16636,8.669868 -16.666103,15.07413 -16.666103,14.231693 z M 30.573477,27.904327 C 16.468974,15.273366 8.412595,8.3000579 4.4968316,5.3333332 2.0770251,3.4999999 0.02200997,0.62606125 -0.00471551,0.07606122 0.94553044,0.01133893 3.4499999,0.00519985 7.6666665,0.01155521 l 7.6666665,0.01155523 10,14.20970656 c 5.5,7.81534 10.479814,15.01014 11.066253,15.988445 1.857161,3.098139 -1.086526,1.927489 -5.826109,-2.316935 z M 52.018981,20.999999 C 49.722816,14.95 46.979205,8.1093223 45.922067,5.7984944 44.86493,3.4876664 43.999999,0.46846705 43.999999,0.02929514 c 0,0 3,-0.02929514 6.666666,-0.02929514 h 6.666667 v 7.8044115 c 0,4.2924265 0.385473,11.4924265 0.856608,15.9999995 1.209371,11.570627 -1.116311,10.513713 -6.170959,-2.804412 z m 24.869906,7.444444 C 76.399998,27.955555 75.999998,21.355555 75.999998,13.777777 V 0 h 6.142652 c 3.13615,0 4.976882,0.03391403 5.69102,0.07023255 0.453675,0.02307224 -0.125537,1.23862765 -0.332292,1.97263935 -0.326293,1.1583878 -1.688611,5.5341714 -2.794339,9.8013151 -1.961737,7.570595 -5.649596,17.489146 -6.502712,17.489146 -0.234604,0 -0.826552,-0.4 -1.31544,-0.88889 z"
       id="path9990"
       sodipodi:nodetypes="sssssscsssscccssssscssssssssssssssscssssssssssssscscsssscssssscssssssssssscssssssscssssscsssssssc" />
  </g>
</svg>
